<svg xmlns="http://www.w3.org/2000/svg" viewBox="0 0 122.72 141.73"><title>Recurso 1</title><g id="b927c94e-0b0d-4569-94cd-7f584f1135c7" data-name="Capa 2"><g id="a82b3692-2c71-4c15-8425-a7a09d0c9295" data-name="Capa 1"><path d="M115.67,0H82.14L64.22,67.37h39.25a4.44,4.44,0,0,0,4.29-3.29L122.48,8.83A7,7,0,0,0,115.67,0Z" style="fill:#010101"/><path d="M115.67,0H82.14L64.22,67.37h39.25a4.44,4.44,0,0,0,4.29-3.29L122.48,8.83A7,7,0,0,0,115.67,0Z" style="fill:#010101"/><path d="M100.7,74.7H62.14L44.71,141.5H82.06a7.08,7.08,0,0,0,6.85-5.28l15-57.4A3.29,3.29,0,0,0,100.7,74.7Z" style="fill:#010101"/><path d="M24.83,0S37,2.52,34.75,11.13L0,141.73H37.85L75.53,0Z" style="fill:#010101"/></g></g></svg>